<svg id="แบบ_1" enable-background="new 0 0 63.605 63.605" height="512" viewBox="0 0 63.605 63.605" width="512" xmlns="http://www.w3.org/2000/svg" xmlns:xlink="http://www.w3.org/1999/xlink"><linearGradient id="SVGID_1_" gradientUnits="userSpaceOnUse" x1="31.803" x2="31.803" y1="63.606" y2="0"><stop offset="0" stop-color="#9f2fff"/><stop offset="1" stop-color="#0bb1d3"/></linearGradient><path d="m28.803 33.803v-1h2v1c0 .552.448 1 1 1h1v-1c0-.552-.448-1-1-1-1.654 0-3-1.346-3-3v-3h2v-2h2v2.184c1.161.414 2 1.514 2 2.816v1h-2v-1c0-.552-.448-1-1-1h-1v1c0 .552.448 1 1 1 1.654 0 3 1.346 3 3v3h-2v2h-2v-2.184c-1.162-.415-2-1.514-2-2.816zm3-13c6.065 0 11 4.935 11 11s-4.935 11-11 11-11-4.935-11-11 4.934-11 11-11zm-9 11c0 4.963 4.037 9 9 9s9-4.037 9-9-4.037-9-9-9-9 4.037-9 9zm-19.931 1.915-2.872-1.915 2.872-1.915c.947-14.584 12.432-26.069 27.016-27.016l1.915-2.872 1.915 2.872c14.583.947 26.068 12.432 27.015 27.015l2.872 1.915-2.872 1.915c-.947 14.583-12.432 26.068-27.015 27.015l-1.915 2.872-1.915-2.872c-14.584-.946-26.069-12.431-27.016-27.014zm.733-1.915 3.197 2.132v-1.132h6v-2h-6v-1.132zm31.198-19h1.848l.477 2.864c.808.265 1.586.585 2.326.957l2.357-1.685 6.855 6.855-1.685 2.357c.372.74.692 1.519.957 2.326l2.864.477v1.848h3.783c-1.341-10.358-9.424-18.44-19.782-19.782zm22 16.868v1.132h-6v2h6v1.132l3.197-2.132zm-2.217 5.132h-3.783v1.848l-2.864.477c-.265.808-.585 1.586-.957 2.326l1.685 2.357-6.855 6.855-2.357-1.685c-.74.372-1.519.692-2.326.957l-.477 2.864h-1.848v3.783c10.357-1.341 18.44-9.424 19.782-19.782zm-25.936-20-.404 2.424-.605.175c-1.093.314-2.129.742-3.083 1.271l-.552.306-1.994-1.425-4.459 4.459 1.425 1.994-.306.552c-.528.954-.956 1.99-1.271 3.083l-.175.605-2.424.404v6.305l2.424.404.175.605c.314 1.093.742 2.129 1.271 3.083l.306.552-1.425 1.994 4.459 4.459 1.994-1.425.552.306c.954.528 1.99.956 3.083 1.271l.605.175.404 2.424h6.305l.404-2.424.605-.175c1.093-.314 2.129-.742 3.083-1.271l.552-.306 1.994 1.425 4.459-4.459-1.424-1.994.306-.552c.528-.954.956-1.99 1.271-3.083l.175-.605 2.424-.404v-6.306l-2.424-.404-.175-.605c-.314-1.093-.742-2.129-1.271-3.083l-.306-.552 1.425-1.994-4.459-4.459-1.994 1.425-.552-.306c-.954-.528-1.99-.956-3.083-1.271l-.605-.175-.404-2.424h-6.306zm.153 36h-1.848l-.477-2.864c-.808-.265-1.586-.585-2.326-.957l-2.357 1.685-6.855-6.855 1.685-2.357c-.372-.74-.692-1.519-.957-2.326l-2.864-.477v-1.848h-3.784c1.342 10.359 9.424 18.441 19.783 19.783zm-19.783-22h3.783v-1.848l2.864-.477c.265-.808.585-1.586.957-2.326l-1.685-2.357 6.855-6.855 2.357 1.685c.74-.372 1.519-.692 2.326-.957l.477-2.864h1.848v-3.784c-10.358 1.342-18.44 9.424-19.782 19.783zm19.441 29.789-1.518-2.276c-9.96-1.946-17.707-9.694-19.653-19.654l-2.276-1.518c1.502 12.316 11.131 21.945 23.447 23.448zm3.342 1.408 2.132-3.197h-1.132v-6h-2v6h-1.132zm26.789-24.855-2.276 1.518c-1.946 9.96-9.693 17.707-19.653 19.653l-1.518 2.276c12.315-1.503 21.944-11.132 23.447-23.447zm-23.447-30.131 1.518 2.276c9.96 1.946 17.707 9.693 19.653 19.653l2.276 1.518c-1.503-12.316-11.132-21.945-23.447-23.447zm-3.342-1.409-2.132 3.197h1.132v6h2v-6h1.132zm-26.789 24.856 2.276-1.518c1.946-9.96 9.693-17.707 19.653-19.653l1.518-2.276c-12.316 1.502-21.945 11.131-23.447 23.447z" fill="url(#SVGID_1_)"/></svg>