<?xml version="1.0" encoding="iso-8859-1"?>
<!-- Generator: Adobe Illustrator 19.0.0, SVG Export Plug-In . SVG Version: 6.00 Build 0)  -->
<svg version="1.1" id="Capa_1" xmlns="http://www.w3.org/2000/svg" xmlns:xlink="http://www.w3.org/1999/xlink" x="0px" y="0px"
	 viewBox="0 0 512 512" style="enable-background:new 0 0 512 512;" xml:space="preserve">
<linearGradient id="SVGID_1_" gradientUnits="userSpaceOnUse" x1="-0.3755" y1="261.0273" x2="507.7004" y2="261.0273" gradientTransform="matrix(1.0077 0 0 -1.0077 0.3784 519.0433)">
	<stop  offset="0" style="stop-color:#80D8FF"/>
	<stop  offset="1" style="stop-color:#EA80FC"/>
</linearGradient>
<path style="fill:url(#SVGID_1_);" d="M437.019,310.826c-28.355-28.355-62.197-49.227-99.125-61.651
	c34.055-25.17,56.183-65.596,56.183-111.097C394.078,61.941,332.137,0,256,0S117.922,61.941,117.922,138.077
	c0,45.502,22.128,85.928,56.183,111.097c-36.928,12.424-70.768,33.296-99.125,61.651C26.629,359.178,0,423.465,0,491.846
	C0,502.977,9.023,512,20.154,512h471.691c11.131,0,20.154-9.023,20.154-20.154C512,423.465,485.371,359.178,437.019,310.826z
	 M158.232,138.077c0-53.91,43.858-97.768,97.769-97.768s97.769,43.858,97.769,97.768s-43.858,97.768-97.769,97.768
	S158.232,191.987,158.232,138.077z M41.243,471.691C51.437,362.172,143.863,276.154,256,276.154s204.563,86.017,214.757,195.537
	H41.243z"/>
<g>
</g>
<g>
</g>
<g>
</g>
<g>
</g>
<g>
</g>
<g>
</g>
<g>
</g>
<g>
</g>
<g>
</g>
<g>
</g>
<g>
</g>
<g>
</g>
<g>
</g>
<g>
</g>
<g>
</g>
</svg>
