<svg width="159" height="107" viewBox="0 0 159 107" fill="none" xmlns="http://www.w3.org/2000/svg">
<path fill-rule="evenodd" clip-rule="evenodd" d="M106.592 29.7718H117.925V41.855H126.754V10.0565H117.925V21.958H106.592V10.0565H97.7634V41.855H106.592V29.7718ZM141.133 34.3592V29.3172H156.424V22.3677H141.133V17.5518H158.017V10.0565H132.394V41.855H158.245V34.3592H141.133ZM114.74 57.3434C114.74 54.1176 113.784 51.665 111.918 49.802C109.78 47.6672 106.411 46.3949 101.542 46.3949H86.477V85.8212L69.8221 46.1679H62.9163C68.9813 41.5044 72.893 34.1875 72.893 25.9557C72.8934 23.1747 72.4375 20.4125 71.5434 17.7789H75.5084V41.855H84.3386V17.7789H93.8957V10.0565H67.3135C62.6313 4.20428 55.4264 0.451721 47.3397 0.451721C39.2525 0.451721 32.0482 4.20428 27.3656 10.0565H0.829285V17.7789H10.3864V41.855H19.2161V17.7789H23.1357C22.2417 20.4125 21.786 23.1748 21.7866 25.9557C21.7866 35.3183 26.8434 43.4968 34.3769 47.9329L27.7263 58.7059L20.1253 46.3949H10.7962V78.1935H19.4424V60.0236L27.544 72.379H27.7263L35.8733 59.9326V78.1935H44.6564V51.3199C45.5478 51.4135 46.4434 51.4608 47.3397 51.4614C52.2162 51.4614 56.7729 50.0958 60.6496 47.7307L47.7481 78.1935H57.0334L59.3087 72.5151H71.597L85.8402 106.842H95.306V68.5634H99.1746L105.592 78.1935H115.786L108.186 67.1092C112.145 65.4286 114.74 62.203 114.74 57.3434ZM24.9956 30.6001C37.9884 33.4383 46.5664 29.3972 52.8803 26.4048C56.8204 24.5355 59.9346 23.0645 62.5803 24.0483C64.8724 24.9027 66.9765 27.6089 69.1866 32.5395C68.8737 33.571 68.4871 34.5787 68.0297 35.5549C63.426 28.544 59.2116 30.5908 53.4985 33.3741C47.7981 36.1522 40.0248 39.9145 27.401 37.0215C26.2767 35.0159 25.4655 32.8505 24.9956 30.6001ZM69.7748 21.7979C60.2028 12.7685 55.7218 14.5776 49.4746 18.2103C44.483 21.1115 38.302 24.7002 25.336 19.9228C25.8293 18.1311 26.542 16.4071 27.4581 14.79C33.3822 15.206 38.8492 14.2192 44.143 13.2446C52.8286 11.6447 60.3702 10.2754 67.6739 15.633C68.6686 17.5757 69.3763 19.6522 69.7748 21.7979ZM50.3908 19.7799C56.0643 16.485 59.8445 14.2963 70.125 24.6854C70.1485 25.1065 70.1625 25.5295 70.1625 25.9557C70.1612 27.2105 70.0563 28.4629 69.8488 29.7004C67.7421 25.5602 65.6482 23.2507 63.2169 22.3458C59.8487 21.0922 56.4276 22.712 52.1 24.7631C45.9135 27.6957 37.4685 31.6804 24.685 28.6713C24.399 26.352 24.4787 24.0022 24.9213 21.7076C38.5398 26.6675 45.0909 22.8596 50.3908 19.7799ZM52.9224 3.86737C52.9187 3.87109 52.9147 3.87923 52.9113 3.88226C52.0521 4.87112 49.16 5.07261 46.0979 5.28505L43.8888 5.44605C41.3154 5.64359 38.8734 5.82298 37.4394 5.43372C42.2581 3.11752 47.737 2.56324 52.9224 3.86737ZM35.4849 6.49681C36.4687 7.25439 37.9283 7.48753 39.7529 7.48753C41.0186 7.48753 42.4577 7.37794 44.0285 7.25904L46.2241 7.09897C49.9726 6.83767 52.9327 6.63152 54.2864 5.07261C54.4641 4.86832 54.597 4.64077 54.7095 4.40182C58.9992 5.87139 62.7561 8.58004 65.5043 12.1847C58.562 8.75793 51.3619 10.0674 43.8124 11.4581C38.9263 12.3588 33.8898 13.2818 28.5489 13.0475C30.3771 10.4033 32.74 8.17168 35.4849 6.49681ZM28.7752 39.1823C31.4557 39.6888 33.9149 39.9066 36.1823 39.9066C44.2411 39.9066 49.8655 37.1669 54.2964 35.0072C60.1048 32.177 63.0758 30.7491 67.0464 37.4247C65.1227 40.7053 62.4141 43.4573 59.1637 45.434C52.7217 40.4315 48.9681 41.6773 42.2691 43.9284C40.5154 44.518 38.5293 45.1797 36.217 45.837C33.2784 44.1904 30.7379 41.9186 28.7752 39.1823ZM38.6464 47.0143C40.1876 46.5413 41.5827 46.075 42.8505 45.6509C49.2885 43.4879 52.1671 42.5277 57.419 46.3859C54.5142 47.8175 51.3375 48.614 48.1005 48.7224C44.8635 48.8308 41.6405 48.2485 38.6464 47.0143ZM61.9023 65.6559L65.4976 56.6165L69.0479 65.6559H61.9023ZM101.132 61.6579H95.306V54.0266H101.086C104.044 54.0266 105.865 55.298 105.865 57.7966C105.865 60.2039 104.135 61.6579 101.132 61.6579ZM132.715 58.3869C128.3 57.3878 127.208 56.7529 127.208 55.298C127.208 54.0713 128.255 53.1629 130.394 53.1629C133.216 53.1629 136.401 54.2542 139.314 56.2968L143.729 50.0749C140.271 47.3045 136.038 45.8493 130.622 45.8493C122.975 45.8493 118.289 50.1207 118.289 56.0262C118.289 62.657 123.522 64.5653 130.303 66.1101C134.626 67.1092 135.673 67.8358 135.673 69.1537C135.673 70.6065 134.399 71.4239 132.032 71.4239C128.346 71.4239 124.842 70.1076 121.702 67.6087L116.786 73.4684C120.7 76.9675 126.07 78.7382 131.713 78.7382C139.451 78.7382 144.594 74.8765 144.594 68.3817C144.594 62.3391 140.043 59.9773 132.715 58.3869Z" fill="white"/>
</svg>
