<svg id="Capa_1" enable-background="new 0 0 512.174 512.174" height="512" viewBox="0 0 512.174 512.174" width="512" xmlns="http://www.w3.org/2000/svg"><path d="m336.715 302.839c0-38.902-31.649-70.55-70.549-70.55h-20.159c-12.635 0-22.915-10.279-22.915-22.914s10.28-22.915 22.915-22.915h20.159c9.234 0 17.526 5.497 21.123 14.002 5.125 12.115 19.105 17.78 31.214 12.659 12.115-5.125 17.782-19.1 12.659-31.214-9.248-21.865-28.578-37.267-51.258-41.743v-18.048c0-13.155-10.663-23.818-23.818-23.818s-23.818 10.663-23.818 23.818v18.053c-32.348 6.41-56.812 35.004-56.812 69.206 0 38.901 31.649 70.549 70.55 70.549h20.159c12.635 0 22.914 10.28 22.914 22.915s-10.279 22.914-22.914 22.914h-20.159c-9.521 0-17.907-5.729-21.364-14.595-4.78-12.255-18.589-18.316-30.844-13.537s-18.315 18.589-13.537 30.844c8.941 22.926 28.584 39.036 52.007 43.603v18.029c0 13.155 10.663 23.818 23.818 23.818s23.818-10.663 23.818-23.818v-18.053c32.347-6.41 56.811-35.004 56.811-69.205z" fill="#78d0b1"/><path d="m301.161 161.906c5.124 12.114-.543 26.09-12.659 31.214-1.582.669-3.197 1.154-4.819 1.465 1.465 1.736 2.688 3.708 3.605 5.877 5.125 12.115 19.105 17.78 31.214 12.659 12.115-5.125 17.782-19.1 12.659-31.214-7.981-18.869-23.469-32.924-42.14-39.298 4.976 5.629 9.102 12.114 12.14 19.297z" fill="#66b49d"/><path d="m288.932 236.057c11.059 12.46 17.783 28.85 17.783 46.781 0 28.998-17.587 53.966-42.655 64.798-8.621 3.726-14.157 12.272-14.157 21.664v.796c0 10.95-7.389 20.174-17.453 22.957 1.484 11.98 11.862 21.201 24.322 20.851 12.976-.365 23.131-11.378 23.131-24.359v-17.502c32.347-6.41 56.812-35.004 56.812-69.205 0-30.938-20.019-57.289-47.783-66.781z" fill="#66b49d"/><path d="m307.027 69.219 14.132-52.739c-104.767-28.993-221.786 14.144-280.138 114.697-23.896 41.179-35.401 87.982-33.271 135.347 1.821 40.497 13.465 79.753 33.833 114.511.457.78.335 1.767-.303 2.407l-22.356 22.421c-2.472 2.479-1.333 6.704 2.05 7.605l112.266 29.899c5.086 1.355 9.731-3.304 8.362-8.387l-30.225-112.179c-.911-3.38-5.139-4.507-7.611-2.028l-19.299 19.355c-.968.971-2.616.702-3.209-.534-27.358-57.104-25.346-125.464 6.914-181.055 45.211-77.909 136.461-112.12 218.855-89.32z" fill="#938bc6"/><path d="m205.143 442.993-14.132 52.739c104.766 28.993 221.785-14.144 280.137-114.697 23.896-41.179 35.401-87.981 33.271-135.347-1.821-40.497-13.465-79.753-33.833-114.511-.457-.78-.335-1.767.303-2.407l22.356-22.421c2.472-2.479 1.333-6.704-2.05-7.605l-112.265-29.899c-5.086-1.355-9.731 3.304-8.362 8.386l30.225 112.179c.911 3.38 5.139 4.507 7.611 2.028l19.299-19.355c.968-.971 2.616-.702 3.209.534 27.359 57.105 25.347 125.464-6.913 181.055-45.212 77.91-136.462 112.122-218.856 89.321z" fill="#938bc6"/><path d="m111.378 322.801c-.911-3.38-5.139-4.507-7.611-2.028l-15.935 15.981 23.771 88.225c1.369 5.082-3.276 9.741-8.362 8.386l-85.368-22.735c.478 1.317 1.555 2.424 3.102 2.836l112.266 29.899c5.086 1.354 9.731-3.304 8.362-8.387z" fill="#8078bc"/><path d="m504.42 245.688c-1.821-40.498-13.465-79.753-33.833-114.511-.457-.78-.335-1.767.303-2.407l22.356-22.421c2.472-2.479 1.333-6.704-2.05-7.605l-26.898-7.164c.567 1.564.29 3.423-1.052 4.769l-10.048 10.077c-7.667 7.689-9.663 19.434-4.802 29.144 15.539 31.044 24.45 65.117 26.024 100.118 2.13 47.365-9.375 94.168-33.271 135.347-52.658 90.741-153.092 134.725-249.183 121.138l-.954 3.559c104.766 28.993 221.785-14.144 280.137-114.697 23.896-41.179 35.401-87.982 33.271-135.347z" fill="#8078bc"/><path d="m287.403 134.251v-12.135c0-17.269-14.049-31.318-31.318-31.318s-31.318 14.049-31.318 31.318v12.145c-33.264 9.402-56.812 40.055-56.812 75.114 0 43.037 35.013 78.049 78.05 78.049h20.159c8.499 0 15.414 6.916 15.414 15.416s-6.915 15.414-15.414 15.414h-20.159c-6.408 0-12.051-3.854-14.377-9.82-6.276-16.088-24.471-24.075-40.556-17.799-16.088 6.274-24.073 24.467-17.799 40.556 9.019 23.127 28.01 40.259 51.494 46.805v12.102c0 17.269 14.049 31.318 31.318 31.318s31.318-14.049 31.318-31.318v-12.146c19.729-5.575 36.552-18.75 46.77-36.842 2.037-3.607.765-8.182-2.842-10.219-3.607-2.038-8.182-.765-10.219 2.842-9.093 16.101-24.645 27.383-42.667 30.955-3.512.696-6.042 3.777-6.042 7.357v18.052c0 8.998-7.32 16.318-16.318 16.318s-16.318-7.32-16.318-16.318v-18.029c0-3.589-2.542-6.675-6.065-7.361-21.183-4.129-38.549-18.696-46.454-38.966-3.269-8.383.892-17.863 9.274-21.132 8.379-3.269 17.861.891 21.131 9.274 4.588 11.767 15.717 19.37 28.352 19.37h20.159c16.771 0 30.414-13.644 30.414-30.414 0-16.771-13.644-30.416-30.414-30.416h-20.159c-34.766 0-63.05-28.284-63.05-63.049 0-30.008 21.352-56.02 50.77-61.85 3.512-.696 6.042-3.777 6.042-7.357v-18.052c0-8.998 7.32-16.318 16.318-16.318s16.318 7.32 16.318 16.318v18.048c0 3.583 2.533 6.665 6.048 7.358 20.512 4.048 37.635 17.995 45.803 37.307 3.505 8.286-.386 17.879-8.673 21.384-8.286 3.506-17.88-.385-21.386-8.673-4.774-11.287-15.776-18.58-28.03-18.58h-20.159c-16.771 0-30.415 13.644-30.415 30.415s13.644 30.415 30.415 30.415h20.159c34.766 0 63.05 28.284 63.05 63.05 0 4.142 3.357 7.5 7.5 7.5s7.5-3.358 7.5-7.5c0-43.037-35.013-78.05-78.05-78.05h-20.159c-8.5 0-15.415-6.915-15.415-15.415s6.915-15.415 15.415-15.415h20.159c6.214 0 11.794 3.699 14.216 9.424 6.728 15.904 25.137 23.371 41.044 16.645 15.904-6.728 23.371-25.139 16.644-41.043-9.296-21.979-27.971-38.345-50.666-44.734z"/><path d="m32.99 381.134-19.376 19.434c-3.029 3.038-4.218 7.5-3.101 11.642s4.386 7.401 8.532 8.506l112.267 29.899c10.664 2.838 20.407-6.92 17.534-17.585l-30.226-112.18c-1.116-4.143-4.385-7.402-8.531-8.507s-8.604.096-11.633 3.135l-13.676 13.716c-10.767-25.195-15.914-52.833-14.926-80.426 4.284-119.706 119.305-204.385 235.173-172.32 4.016 1.109 8.166-1.266 9.244-5.287l14.132-52.739c1.066-3.978-1.274-8.071-5.244-9.17-67.381-18.646-140.489-8.398-200.579 28.118-3.54 2.151-4.666 6.764-2.514 10.304 2.15 3.539 6.764 4.666 10.304 2.514 54.435-33.08 120.204-43.265 181.588-28.351l-10.256 38.273c-123.325-29.212-242.317 61.746-246.839 188.121-1.168 32.645 5.62 65.358 19.632 94.605 1.327 2.769 3.928 4.729 6.959 5.246 3.035.518 6.148-.476 8.324-2.657l15.688-15.734 28.596 106.134-106.215-28.288 18.743-18.797c3.041-3.048 3.644-7.775 1.464-11.496-19.71-33.638-31.056-72.041-32.811-111.057-3.521-78.267 31.49-150.346 87.482-196.386 3.199-2.631 3.66-7.357 1.029-10.557-2.631-3.199-7.356-3.661-10.557-1.029-59.495 48.922-96.68 125.467-92.939 208.646 1.8 40.02 13.103 79.437 32.732 114.273z"/><path d="m479.18 131.078 19.378-19.433c3.028-3.038 4.217-7.499 3.101-11.641-1.117-4.143-4.387-7.402-8.533-8.507l-112.267-29.899c-10.662-2.838-20.407 6.919-17.534 17.585l30.226 112.18c1.116 4.143 4.386 7.402 8.532 8.506 4.142 1.102 8.603-.097 11.631-3.135l13.677-13.716c2.894 6.768 5.396 13.739 7.469 20.808 1.165 3.975 5.33 6.251 9.307 5.087 3.976-1.166 6.253-5.332 5.088-9.307-3.038-10.364-6.934-20.534-11.579-30.229-1.327-2.768-3.929-4.729-6.958-5.245-3.038-.517-6.148.476-8.325 2.657l-15.688 15.734-28.598-106.135 106.216 28.288-18.747 18.802c-3.037 3.048-3.638 7.773-1.46 11.492 19.71 33.636 31.056 72.039 32.812 111.056 7.189 159.851-141.841 281.909-296.715 244.348l10.255-38.271c133.443 31.61 260.571-77.755 245.837-216.835-.436-4.119-4.119-7.103-8.248-6.668-4.119.437-7.104 4.129-6.668 8.249 11.82 111.606-75.668 205.668-184.701 205.661-16.448-.001-33.105-2.194-49.544-6.743-4.027-1.111-8.17 1.274-9.245 5.287l-14.132 52.739c-1.066 3.978 1.275 8.071 5.244 9.17 21.917 6.065 44.613 9.077 67.345 9.077 146.38-.002 262.069-121.896 255.556-266.686-1.801-40.024-13.103-79.441-32.732-114.276z"/></svg>