<svg id="Capa_1" enable-background="new 0 0 512.002 512.002" height="512" viewBox="0 0 512.002 512.002" width="512" xmlns="http://www.w3.org/2000/svg" xmlns:xlink="http://www.w3.org/1999/xlink"><linearGradient id="SVGID_1_" gradientUnits="userSpaceOnUse" x1="256.001" x2="256.001" y1="512.001" y2=".001"><stop offset="0" stop-color="#a93aff"/><stop offset="1" stop-color="#ff81ff"/></linearGradient><g><g><path d="m504.966 153.29-241-151c-4.871-3.052-11.058-3.052-15.929 0l-241 151c-5.668 3.551-8.299 10.426-6.452 16.854 1.848 6.429 7.728 10.857 14.417 10.857h15v316c0 8.284 6.716 15 15 15h60c8.284 0 15-6.716 15-15v-226h272v226c0 8.284 6.716 15 15 15h60c8.284 0 15-6.716 15-15v-316h15c6.688 0 12.569-4.428 14.417-10.857 1.846-6.428-.785-13.303-6.453-16.854zm-112.965 87.711h-272v-30h272zm60-75v316h-30v-286c0-8.284-6.716-15-15-15h-302c-8.284 0-15 6.716-15 15v286h-30v-316c0-3.259-1.04-6.276-2.805-8.736l198.805-124.563 198.805 124.563c-1.765 2.46-2.805 5.477-2.805 8.736zm-105 135h-182c-8.284 0-15 6.716-15 15v181c0 8.284 6.716 15 15 15h182c8.284 0 15-6.716 15-15v-181c0-8.284-6.716-15-15-15zm-106 30h30v30h-30zm91 151h-152v-151h31v45c0 8.284 6.716 15 15 15h60c8.284 0 15-6.716 15-15v-45h31zm-151-346c0 8.284 6.716 15 15 15h120c8.284 0 15-6.716 15-15s-6.716-15-15-15h-120c-8.284 0-15 6.716-15 15z" fill="url(#SVGID_1_)"/></g></g></svg>