<svg height="511pt" viewBox="0 -56 511.99921 511" width="511pt" xmlns="http://www.w3.org/2000/svg" xmlns:xlink="http://www.w3.org/1999/xlink"><linearGradient id="a" gradientUnits="userSpaceOnUse" x1="-.000668" x2="511.9991274357" y1="199.5985497195" y2="199.5985497195"><stop offset="0" stop-color="#80d8ff"/><stop offset="1" stop-color="#ea80fc"/></linearGradient><path d="m358.609375 181.707031-157.335937-78.667969c-13.273438-6.636718-28.945313 3.023438-28.945313 17.890626v157.335937c0 14.902344 15.703125 24.511719 28.945313 17.890625l157.335937-78.667969c14.710937-7.355469 14.726563-28.414062 0-35.78125zm-146.28125 64.199219v-92.613281l92.617187 46.304687zm293.664063-146.5625c-5.425782-44.683594-40.355469-80.414062-84.945313-86.886719-109.707031-15.925781-220.75-15.941406-330.050781-.046875-44.605469 6.488282-79.550782 42.214844-84.976563 86.886719-8.085937 66.535156-8.023437 134.105469.179688 200.824219 5.480469 44.570312 40.417969 80.21875 84.964843 86.6875 109.101563 15.851562 220.027344 15.863281 329.699219-.042969 44.527344-6.457031 79.453125-42.101563 84.9375-86.679687 8.199219-66.703126 8.265625-134.242188.191407-200.742188zm-39.894532 195.863281c-3.285156 26.726563-24.246094 48.097657-50.972656 51.972657-105.777344 15.339843-212.839844 15.355468-318.210938.046874-26.75-3.886718-47.726562-25.261718-51.011718-51.984374-7.808594-63.503907-7.867188-127.804688-.175782-191.121094 3.257813-26.792969 24.238282-48.230469 51.023438-52.125 105.394531-15.328125 212.566406-15.339844 318.550781.046875 26.761719 3.886719 47.726563 25.320312 50.980469 52.121093 7.683594 63.28125 7.621094 127.558594-.183594 191.042969zm0 0" fill="url(#a)"/></svg>